<?xml version="1.0" encoding="utf-8"?>
<!-- Generator: Adobe Illustrator 16.0.0, SVG Export Plug-In . SVG Version: 6.00 Build 0)  -->
<!DOCTYPE svg PUBLIC "-//W3C//DTD SVG 1.1//EN" "http://www.w3.org/Graphics/SVG/1.1/DTD/svg11.dtd">
<svg version="1.1" id="Layer_1" xmlns="http://www.w3.org/2000/svg" xmlns:xlink="http://www.w3.org/1999/xlink" x="0px" y="0px"
	 width="550.62px" height="514.72px" viewBox="-71.526 0 550.62 514.72" enable-background="new -71.526 0 550.62 514.72"
	 xml:space="preserve">
<path fill="#DC4640" d="M205.545,0.01c24.859,120.789,70.329,179.121,128.761,257.355c20.218,27.065,32.665,59.868,32.665,96.251
	c0,88.966-72.445,161.104-161.418,161.104c-88.965,0-160.792-72.139-160.792-161.104c0-35.906,11.109-70.037,31.714-96.251
	C137.459,179.782,182.092,121.131,205.545,0V0.01z"/>
<g>
	<path fill="#DC4640" d="M22.636,44.147h10.652v21.352L53.31,44.147h13.991L46.037,65.46l22.355,30.508H54.469l-15.965-22.62
		l-5.216,5.288v17.332H22.636V44.147z"/>
	<path fill="#DC4640" d="M88.826,72.659c1.864-0.234,3.198-0.527,4.001-0.879c1.441-0.609,2.161-1.559,2.161-2.848
		c0-1.57-0.553-2.654-1.657-3.252s-2.727-0.896-4.864-0.896c-2.399,0-4.099,0.586-5.097,1.758c-0.713,0.867-1.188,2.039-1.425,3.516
		h-9.668c0.212-3.352,1.153-6.105,2.825-8.262c2.659-3.375,7.226-5.062,13.699-5.062c4.213,0,7.956,0.832,11.229,2.496
		c3.271,1.665,4.907,4.805,4.907,9.422v17.578c0,1.219,0.022,2.695,0.07,4.43c0.07,1.313,0.269,2.203,0.598,2.672
		c0.328,0.469,0.82,0.856,1.477,1.16v1.477H96.183c-0.305-0.773-0.516-1.5-0.633-2.18c-0.118-0.68-0.211-1.453-0.281-2.32
		c-1.391,1.5-2.994,2.777-4.81,3.832c-2.168,1.242-4.621,1.863-7.355,1.863c-3.488,0-6.371-0.99-8.646-2.971
		s-3.412-4.787-3.412-8.42c0-4.711,1.829-8.121,5.489-10.23c2.008-1.148,4.959-1.969,8.854-2.461L88.826,72.659z M94.952,77.335
		c-0.641,0.399-1.289,0.721-1.941,0.967c-0.654,0.246-1.551,0.475-2.691,0.686l-2.28,0.422c-2.138,0.375-3.673,0.832-4.605,1.371
		c-1.578,0.914-2.367,2.333-2.367,4.254c0,1.711,0.481,2.948,1.446,3.709c0.963,0.762,2.135,1.143,3.516,1.143
		c2.189,0,4.206-0.633,6.051-1.898s2.803-3.574,2.873-6.926V77.335z"/>
	<path fill="#DC4640" d="M145.917,61.761c3.126,3.305,4.688,8.156,4.688,14.555c0,6.75-1.527,11.895-4.582,15.434
		c-3.056,3.539-6.989,5.309-11.801,5.309c-3.067,0-5.614-0.762-7.644-2.285c-1.108-0.844-2.193-2.074-3.255-3.691v19.969h-9.914
		V57.647h9.598v5.66c1.085-1.664,2.241-2.976,3.468-3.938c2.24-1.71,4.905-2.566,7.996-2.566
		C138.976,56.804,142.792,58.456,145.917,61.761z M138.227,68.968c-1.362-2.273-3.57-3.41-6.624-3.41
		c-3.671,0-6.192,1.723-7.565,5.168c-0.711,1.828-1.065,4.148-1.065,6.961c0,4.453,1.194,7.582,3.585,9.387
		c1.42,1.055,3.102,1.582,5.044,1.582c2.817,0,4.968-1.078,6.448-3.234c1.479-2.156,2.22-5.027,2.22-8.613
		C140.269,73.854,139.588,71.241,138.227,68.968z"/>
</g>
<g>
	<path fill="#DC4640" d="M262.838,93.163l26.486-33.504h-25.818v-9.176h39.27v8.684l-26.829,33.996h26.899v9.141h-40.008V93.163z
		 M278.799,46.334l-8.262-10.512h8.156l4.605,5.941l4.57-5.941h8.156l-8.227,10.512H278.799z"/>
	<path fill="#DC4640" d="M319.967,59.413h-10.16v-9.246h10.16V59.413z M309.807,63.983h10.16v38.32h-10.16V63.983z"/>
	<path fill="#DC4640" d="M353.277,63.983h10.758l-13.838,38.32h-10.564l-13.742-38.32h11.25l7.98,28.266L353.277,63.983z"/>
	<path fill="#DC4640" d="M401.67,97.615c-3.234,3.993-8.145,5.989-14.73,5.989c-6.587,0-11.496-1.996-14.73-5.989
		c-3.234-3.992-4.852-8.799-4.852-14.419c0-5.526,1.617-10.315,4.852-14.366s8.144-6.077,14.73-6.077
		c6.586,0,11.496,2.026,14.73,6.077s4.852,8.84,4.852,14.366C406.521,88.816,404.904,93.623,401.67,97.615z M393.654,92.078
		c1.569-2.083,2.355-5.043,2.355-8.882c0-3.838-0.786-6.793-2.355-8.864c-1.57-2.071-3.82-3.107-6.75-3.107
		c-2.931,0-5.186,1.036-6.768,3.107s-2.373,5.026-2.373,8.864c0,3.839,0.791,6.799,2.373,8.882s3.837,3.124,6.768,3.124
		C389.834,95.202,392.084,94.161,393.654,92.078z"/>
	<path fill="#DC4640" d="M409.756,71.471v-7.137h5.344V53.647h9.914v10.688h6.223v7.137h-6.223v20.25
		c0,1.57,0.198,2.549,0.598,2.936c0.398,0.387,1.617,0.58,3.656,0.58c0.304,0,0.627-0.005,0.967-0.018
		c0.339-0.012,0.673-0.029,1.002-0.053v7.488l-4.746,0.176c-4.734,0.164-7.969-0.656-9.703-2.461
		c-1.125-1.148-1.688-2.918-1.688-5.309v-23.59H409.756z"/>
	<path fill="#DC4640" d="M452.848,78.995c1.864-0.234,3.198-0.527,4.001-0.879c1.441-0.609,2.161-1.559,2.161-2.848
		c0-1.57-0.553-2.654-1.657-3.252s-2.727-0.896-4.864-0.896c-2.399,0-4.099,0.586-5.097,1.758c-0.713,0.867-1.188,2.039-1.425,3.516
		h-9.668c0.212-3.352,1.153-6.105,2.825-8.262c2.659-3.375,7.226-5.062,13.699-5.062c4.213,0,7.956,0.832,11.229,2.496
		c3.271,1.665,4.907,4.805,4.907,9.422v17.578c0,1.219,0.022,2.695,0.07,4.43c0.07,1.313,0.269,2.203,0.598,2.672
		c0.328,0.469,0.82,0.856,1.477,1.16v1.477h-10.898c-0.305-0.773-0.516-1.5-0.633-2.18c-0.118-0.68-0.211-1.453-0.281-2.32
		c-1.391,1.5-2.994,2.777-4.81,3.832c-2.168,1.242-4.621,1.863-7.355,1.863c-3.488,0-6.371-0.99-8.646-2.971
		s-3.412-4.787-3.412-8.42c0-4.711,1.829-8.121,5.489-10.23c2.008-1.148,4.959-1.969,8.854-2.461L452.848,78.995z M458.974,83.67
		c-0.641,0.399-1.289,0.721-1.941,0.967c-0.654,0.246-1.551,0.475-2.691,0.686l-2.28,0.422c-2.138,0.375-3.673,0.832-4.605,1.371
		c-1.578,0.914-2.367,2.333-2.367,4.254c0,1.711,0.481,2.948,1.446,3.709c0.963,0.762,2.135,1.143,3.516,1.143
		c2.189,0,4.206-0.633,6.051-1.898s2.803-3.574,2.873-6.926V83.67z"/>
</g>
</svg>
